<?xml version="1.0" encoding="UTF-8"?>
<svg version="1.1" viewBox="0 0 1192 876" width="298" height="219" xmlns="http://www.w3.org/2000/svg">
<path transform="translate(597,180)" d="m0 0 4 2 9 10 8 8 12 9 10 9 10 8 13 11 19 14 16 13 10 8 10 9 8 7 13 11 16 13 10 8 13 11 30 27 8 7 14 12 18 13 12 11 1 2-1 12-1 97-1 49-3 37-5 24-7 20-8 16-8 12-9 10-7 8-14 14-11 9-8 8-22 18-18 14-12 10-10 8-14 12-13 11-32 24-12 10-17 12-17 10-11 6-3 2-5-1-22-14-12-9-14-11-13-10-12-8-16-12-11-9-13-12-11-9-13-10-12-9-13-10-10-8-14-12-10-8-12-11-10-10-13-17-8-14-10-21-7-21-3-16-1-18-3-146-1-25 9-7 14-12 11-9 11-10 11-9 11-10 11-9 10-9 14-11 11-9 12-9 13-11 11-9 16-13 8-7 14-12 11-9 9-8 14-11 11-9 28-22 7-7zm0 76-8 8-11 9-13 10-10 9-9 7-12 11-13 10-14 12-13 10-16 12-18 14-13 11-11 9-20 16-14 10-10 6v157l2 16 3 10 8 14 8 12 10 13 9 10 10 9 11 9 11 10 30 23 14 11 14 12 16 13 14 11 16 12 16 10 9 4 7-1 25-17 12-10 36-26 15-12 11-9 14-12 8-7 10-9 14-12 10-9 15-15 13-17 7-11 6-12 2-9 1-14 1-158-8-7-17-12-15-11-17-12-19-14-13-11-14-11-13-11-14-10-16-13-10-8-14-12-13-11-8-7-9-10z" fill="#FCFCFC"/>
<path transform="translate(594,49)" d="m0 0 6 1 16 12 22 18 28 24 17 14 19 14 17 13 11 8 13 11 8 7 12 12 9 12 4 8 3 8 2 17 5 6 8 2 14 1 21 7 14 8 17 12 18 14 14 12 11 9 10 9 11 9 13 11 11 9 14 12 16 13 3 3-1 5-11 11-17 12-8 7-6 7-4-1-16-13-11-9-15-13-10-9-12-11-13-11-14-11-14-13-8-7-10-9-8-7-12-11-11-9-16-13-11-9-10-8-13-11-22-18-28-22-26-22-11-9-25-20-11-9-5-6-6-3-8 7-12 11-12 10-8 6-14 12-13 11-35 28-11 10-14 11-11 9-10 8-22 18-12 11-14 11-11 9-13 10-17 14-14 12-9 9-11 9-12 11-8 7-8 8-11 9-13 11-12 8-7 1-8-3-16-11-8-8-13-10-2-2 1-6 10-9 20-15 16-13 14-11 17-14 16-13 14-12 10-8 10-9 10-8 13-11 13-10 9-8 10-8 14-12 34-28 11-9 14-11 14-12 11-9 12-11 14-11 10-9 10-8 13-11 13-10 15-12 14-10z" fill="#FCFCFC"/>
<path transform="translate(597,317)" d="m0 0 4 2 15 14 17 12 14 12 16 13 9 8 11 9 13 11 8 6 17 14 19 14 8 6 3 2v140l-8 15-9 12-14 17-7 8-8 8-11 9-9 8-11 9-13 11-10 8-11 9-15 12-15 10-11 8-5-1-16-13-7-6-11-8-32-24-10-8-11-10-10-8-16-15-16-16-12-16-9-14-4-10-1-30v-75l-1-21 2-3h2l2-4 11-11 8-7 11-10 16-12 27-21 13-11 26-20 17-12 14-11 8-8h2zm1 72-12 6-27 18-13 9-12 9-17 12-14 10-12 10-4 7 1 60 1 28 2 16 9 13 8 10 13 9 11 6 18 13 18 14 13 9 13 8 2 1 9-1 9-6 11-9 14-12 10-8 12-10 13-9 13-10 9-9 4-8 2-23 2-72v-12l-2-4-11-9-10-8-18-13-15-10-12-9-14-11-12-9-9-6z" fill="#4CA5FC"/>
<path transform="translate(337,568)" d="m0 0 3 1 4 20 4 12 6 14 13 23 11 17 10 13 14 15 3 3v2l4 2 10 10 11 9 15 12 16 12 16 13 10 8 10 9 8 7 16 13 20 14 28 17 14 8 12 6 4 1 12-4 11-6 19-12 16-12 9-7 10-9 10-8 12-10 11-9 12-9 11-9 11-10 11-9 14-12 10-9 8-7 7-7 8-7 11-12 11-14 10-14 6-9 4-2 5 2-1 7-8 20-9 15-9 11-12 13-12 12-11 9-8 8-22 18-18 14-12 10-10 8-14 12-13 11-32 24-12 10-17 12-17 10-11 6-3 2-5-1-22-14-12-9-14-11-13-10-12-8-16-12-11-9-13-12-11-9-13-10-12-9-13-10-10-8-14-12-10-8-12-11-10-10-13-17-8-14-10-21v-6l-2-7-1-7-2-9v-8l-3-21 1-4z" fill="#B4B9BF"/>
<path transform="translate(846,111)" d="m0 0h10l6 1 1 3v55l-2 20-2 11-2 1-13-9-16-13-14-10-7-3v2l-2-1-9-1-5-4-1-2-3-1-3-7-2-18-3-13v-7l2-2 11-1z" fill="#FDFDFD"/>
<path transform="translate(955,480)" d="m0 0h16l10 4 10 9 6 8 5 11 1 5v9l-3 12-6 10-8 8-9 6-2 1h-23l-8-3-10-9-6-12-3-15 1-11 5-12 6-8 5-6 7-5z" fill="#4CA5FD"/>
<path transform="translate(528,545)" d="m0 0h48v53l-1 1h-49l-1-1v-27l1-18z" fill="#FDFDFD"/>
<path transform="translate(617,544)" d="m0 0h49l1 1 1 50-1 1-10 1-41 1-1-11 1-42z" fill="#FCFCFC"/>
<path transform="translate(617,451)" d="m0 0h44l5 2 1 3v45l-2 2-37-1-10-1-2-2v-47z" fill="#FCFCFC"/>
<path transform="translate(569,449)" d="m0 0h6l1 1 1 30 1 16-3 5-9 2-11-1h-26l-2-4v-47l5-1z" fill="#FDFDFD"/>
<path transform="translate(630,140)" d="m0 0 7 3 10 7 11 8 9 7 10 8 13 10 13 9 17 12 12 9v2h2v2l4 2 13 11 9 7 4 5-1 5-8-2-5-4-11-7-1-3-3-1-4-5-18-13v-2l-4-2-8-5-3-1-5-6-6-5-2-1v-2l-6-2-5-6-2-1v-3l-4-2-7-5h-2l-1-5-4-2-10-8-10-7-4-5z" fill="#B3B8BE"/>
<path transform="translate(323,340)" d="m0 0h2l-3 6h-2l-1 4-3 1v2h-2l-1 4-5 3-3 1v2l-5 3-4 4-8 6-5 6-5 2-1 3-8 7h-2l-1 3-5 2h-2v2l-4 1-9-1-16-11-8-8v-1h7l14 5 5 3h5l11-7 12-10 13-10 8-6 10-7 3-1 3-3 7-4z" fill="#B3B8BE"/>
<path transform="translate(881,344)" d="m0 0 5 1 7 6 7 4v2l5 2v2l4 2 11 8 13 10 14 9 3 2-2 4-7 7-3-1v-2l-7-1-6-4-6-5-7-8-12-11v-2h-2l-4-6-3-2v-2l-4-2-5-7z" fill="#B3B8BE"/>
<path transform="translate(829,663)" d="m0 0 2 1-8 11-15 16-11 11-11 9-3 2 1-5 8-6 10-10 9-10 7-8 3-4h2v-3h2v-2z" fill="#FDFDFD"/>
<path transform="translate(710,770)" d="m0 0 4 1-11 9-14 12-24 18-2-1 9-10 5-3h2v-2l6-4 4-4 6-2v-2l11-9z" fill="#FDFDFD"/>
<path transform="translate(451,728)" d="m0 0 5 1 11 9 14 11 1 3-5-2-13-10-9-7z" fill="#68AAEB"/>
<path transform="translate(600,850)" d="m0 0 3 2-6 4-5-1-3-3 5-1z" fill="#FDFDFD"/>
<path transform="translate(549,804)" d="m0 0 5 1 8 5v2l-6-2-7-5z" fill="#6FABE7"/>
</svg>
